<mxfile host="app.diagrams.net" modified="2022-07-05T05:47:23.928Z" agent="5.0 (Windows NT 10.0; Win64; x64) AppleWebKit/537.36 (KHTML, like Gecko) Chrome/103.0.0.0 Safari/537.36" etag="mlHS3xT5TVfkS4BaCP43" version="20.0.4" type="github">
  <diagram id="NsxCB-QqvoKfSkn2WVq3" name="Page-1">
    <mxGraphModel dx="1240" dy="691" grid="1" gridSize="10" guides="1" tooltips="1" connect="1" arrows="1" fold="1" page="1" pageScale="1" pageWidth="827" pageHeight="1169" math="0" shadow="0">
      <root>
        <mxCell id="0" />
        <mxCell id="1" parent="0" />
        <mxCell id="25oaMbJbK_RTb96W0AZA-1" value="Talentoz App&lt;br&gt;&lt;br&gt;(Only Deal with communicate with Service Provider get API response)" style="whiteSpace=wrap;html=1;fillColor=#fff2cc;strokeColor=#d6b656;" vertex="1" parent="1">
          <mxGeometry x="220" y="130" width="132" height="350" as="geometry" />
        </mxCell>
        <mxCell id="25oaMbJbK_RTb96W0AZA-2" value="Web API Gateway" style="whiteSpace=wrap;html=1;fillColor=#f8cecc;strokeColor=#b85450;" vertex="1" parent="1">
          <mxGeometry x="530" y="70" width="132" height="1010" as="geometry" />
        </mxCell>
        <mxCell id="25oaMbJbK_RTb96W0AZA-3" value="" style="whiteSpace=wrap;html=1;fillColor=#F7F7F7;strokeColor=#BABABA;fontColor=#333333;" vertex="1" parent="1">
          <mxGeometry x="840" y="80" width="250" height="990" as="geometry" />
        </mxCell>
        <mxCell id="25oaMbJbK_RTb96W0AZA-5" value="System Service" style="rounded=0;whiteSpace=wrap;html=1;fillColor=#ffff88;strokeColor=#36393d;" vertex="1" parent="1">
          <mxGeometry x="885" y="100" width="160" height="60" as="geometry" />
        </mxCell>
        <mxCell id="25oaMbJbK_RTb96W0AZA-6" value="Employee Service" style="rounded=0;whiteSpace=wrap;html=1;fillColor=#f9f7ed;strokeColor=#36393d;" vertex="1" parent="1">
          <mxGeometry x="885" y="170" width="160" height="60" as="geometry" />
        </mxCell>
        <mxCell id="25oaMbJbK_RTb96W0AZA-7" value="Organization Service" style="rounded=0;whiteSpace=wrap;html=1;fillColor=#eeeeee;strokeColor=#36393d;" vertex="1" parent="1">
          <mxGeometry x="885" y="250" width="160" height="60" as="geometry" />
        </mxCell>
        <mxCell id="25oaMbJbK_RTb96W0AZA-8" value="Payroll Service Service" style="rounded=0;whiteSpace=wrap;html=1;fillColor=#ffe6cc;strokeColor=#d79b00;" vertex="1" parent="1">
          <mxGeometry x="885" y="330" width="160" height="60" as="geometry" />
        </mxCell>
        <mxCell id="25oaMbJbK_RTb96W0AZA-9" value="Performance Service" style="rounded=0;whiteSpace=wrap;html=1;fillColor=#e1d5e7;strokeColor=#9673a6;" vertex="1" parent="1">
          <mxGeometry x="885" y="410" width="160" height="60" as="geometry" />
        </mxCell>
        <mxCell id="25oaMbJbK_RTb96W0AZA-10" value="T&amp;amp;A Service" style="rounded=0;whiteSpace=wrap;html=1;fillColor=#d5e8d4;strokeColor=#82b366;" vertex="1" parent="1">
          <mxGeometry x="885" y="490" width="160" height="60" as="geometry" />
        </mxCell>
        <mxCell id="25oaMbJbK_RTb96W0AZA-11" value="Claim Service" style="rounded=0;whiteSpace=wrap;html=1;fillColor=#bac8d3;strokeColor=#23445d;" vertex="1" parent="1">
          <mxGeometry x="885" y="580" width="160" height="60" as="geometry" />
        </mxCell>
        <mxCell id="25oaMbJbK_RTb96W0AZA-12" value="Learning Service" style="rounded=0;whiteSpace=wrap;html=1;fillColor=#b1ddf0;strokeColor=#10739e;" vertex="1" parent="1">
          <mxGeometry x="885" y="660" width="160" height="60" as="geometry" />
        </mxCell>
        <mxCell id="25oaMbJbK_RTb96W0AZA-13" value="Resource Service" style="rounded=0;whiteSpace=wrap;html=1;fillColor=#fad9d5;strokeColor=#ae4132;" vertex="1" parent="1">
          <mxGeometry x="885" y="740" width="160" height="60" as="geometry" />
        </mxCell>
        <mxCell id="25oaMbJbK_RTb96W0AZA-14" value="Recruitment Service" style="rounded=0;whiteSpace=wrap;html=1;fillColor=#FFC35C;strokeColor=#36393d;" vertex="1" parent="1">
          <mxGeometry x="885" y="820" width="160" height="60" as="geometry" />
        </mxCell>
        <mxCell id="25oaMbJbK_RTb96W0AZA-15" value="Import&amp;nbsp; Service" style="rounded=0;whiteSpace=wrap;html=1;fillColor=#547CFF;" vertex="1" parent="1">
          <mxGeometry x="885" y="900" width="160" height="60" as="geometry" />
        </mxCell>
        <mxCell id="25oaMbJbK_RTb96W0AZA-16" value="Report Service" style="rounded=0;whiteSpace=wrap;html=1;fillColor=#FF73D5;" vertex="1" parent="1">
          <mxGeometry x="885" y="980" width="160" height="60" as="geometry" />
        </mxCell>
        <mxCell id="25oaMbJbK_RTb96W0AZA-23" value="" style="shape=doubleArrow;whiteSpace=wrap;html=1;fillColor=#cdeb8b;strokeColor=#36393d;" vertex="1" parent="1">
          <mxGeometry x="660" y="470" width="180" height="60" as="geometry" />
        </mxCell>
      </root>
    </mxGraphModel>
  </diagram>
</mxfile>
